<svg xmlns="http://www.w3.org/2000/svg" width="90.77" height="143.242" viewBox="0 0 90.77 143.242">
  <g id="Grupo_71" data-name="Grupo 71" transform="translate(-537.938 -1173)">
    <path id="Trazado_126" data-name="Trazado 126" d="M-429.829,263.494c.977-.961,1.865-1.959,2.88-2.806a11.669,11.669,0,0,1,9.231-2.635,12.3,12.3,0,0,1,7.794,3.978,14.151,14.151,0,0,1,3.652,8.224,15.906,15.906,0,0,1-2.631,10.708,39.719,39.719,0,0,1-7.162,7.955c-3.88,3.45-7.835,6.816-11.768,10.207a2.631,2.631,0,0,1-3.723.077c-4.879-4.226-9.933-8.255-14.52-12.809a30,30,0,0,1-5.306-6.767,15.391,15.391,0,0,1,1.7-17.457,12.27,12.27,0,0,1,8.621-4.181c4.641-.307,8.2,1.672,11.009,5.225C-429.97,263.323-429.881,263.431-429.829,263.494Z" transform="translate(1013.324 915.049)" fill="#f06d6d"/>
    <g id="Grupo_70" data-name="Grupo 70" transform="translate(212.037 896.844)">
      <path id="Trazado_112" data-name="Trazado 112" d="M482.581,325.071l.663,1.082c5.813,9.489.441,23.114.21,23.689l-12.558-7.92C469.326,328.291,482.581,325.071,482.581,325.071Z" transform="translate(-77.652 -0.405)" fill="#e5e8e8"/>
      <path id="Trazado_113" data-name="Trazado 113" d="M459.981,324.724a30.111,30.111,0,0,1,9.373-.058s-13.255,3.22-11.686,16.851l-11.577-7.3A20.7,20.7,0,0,1,459.981,324.724Z" transform="translate(-64.426 0)" fill="#bf9217"/>
      <path id="Trazado_114" data-name="Trazado 114" d="M347.333,325.071l-.663,1.082c-5.813,9.489-.441,23.114-.21,23.689l12.558-7.92C360.588,328.291,347.333,325.071,347.333,325.071Z" transform="translate(-9.69 -0.405)" fill="#e5e8e8"/>
      <path id="Trazado_115" data-name="Trazado 115" d="M360.584,324.724a30.113,30.113,0,0,0-9.374-.058s13.255,3.22,11.686,16.851l11.577-7.3A20.7,20.7,0,0,0,360.584,324.724Z" transform="translate(-13.566 0)" fill="#bf9217"/>
      <path id="Trazado_116" data-name="Trazado 116" d="M375.95,401.014l1.28-7.655-5.945-51.337h-7.773a30.149,30.149,0,0,0-20.084,7.651,52.435,52.435,0,0,0-17.528,39.1,32.3,32.3,0,0,0,2.394,12.235H375.95Z" transform="translate(0 -9.492)" fill="#f7d134"/>
      <path id="Trazado_117" data-name="Trazado 117" d="M466.711,401.014a32.3,32.3,0,0,0,2.394-12.235,52.433,52.433,0,0,0-17.529-39.1,30.147,30.147,0,0,0-20.083-7.651H423.72v58.991h42.991Z" transform="translate(-52.434 -9.492)" fill="#f7d134"/>
      <g id="Grupo_67" data-name="Grupo 67" transform="translate(355.907 360.067)">
        <g id="Grupo_65" data-name="Grupo 65">
          <path id="Trazado_118" data-name="Trazado 118" d="M393.368,401.372h0a2.8,2.8,0,0,1,2.794,2.795h0a2.794,2.794,0,0,1-2.794,2.794h0a2.794,2.794,0,0,1-2.794-2.794h0A2.794,2.794,0,0,1,393.368,401.372Z" transform="translate(-390.573 -401.372)" fill="#2f3939"/>
        </g>
        <g id="Grupo_66" data-name="Grupo 66" transform="translate(25.169)">
          <path id="Trazado_119" data-name="Trazado 119" d="M447.616,401.372h0a2.8,2.8,0,0,1,2.795,2.795h0a2.8,2.8,0,0,1-2.795,2.794h0a2.8,2.8,0,0,1-2.794-2.794h0A2.8,2.8,0,0,1,447.616,401.372Z" transform="translate(-444.821 -401.372)" fill="#2f3939"/>
        </g>
      </g>
      <path id="Trazado_120" data-name="Trazado 120" d="M348.879,468.2l24.91,9.98,5.945-35.531-.988-8.528q-2.444-.144-4.957-.146c-19.171,0-35.69,6.456-43.219,15.755a32.447,32.447,0,0,0,18.309,18.47Z" transform="translate(-2.503 -58.78)" fill="#f8e183"/>
      <path id="Trazado_121" data-name="Trazado 121" d="M448.643,468.194a32.447,32.447,0,0,0,18.3-18.465c-7.529-9.3-24.048-15.755-43.219-15.755v44.2Z" transform="translate(-52.434 -58.78)" fill="#f8e183"/>
      <g id="Grupo_68" data-name="Grupo 68" transform="translate(358.146 367.231)">
        <path id="Trazado_122" data-name="Trazado 122" d="M407.451,416.811a12.076,12.076,0,0,0,0,24.151h1.088l2.8-12.076-2.8-12.075Z" transform="translate(-395.399 -416.811)" fill="#bf9217"/>
        <path id="Trazado_123" data-name="Trazado 123" d="M424.809,416.811H423.72v24.151h1.089a12.076,12.076,0,0,0,0-24.151Z" transform="translate(-410.58 -416.811)" fill="#bf9217"/>
      </g>
      <g id="Grupo_69" data-name="Grupo 69" transform="translate(364.122 366.537)">
        <path id="Trazado_124" data-name="Trazado 124" d="M409.349,421.32l6.095,4.666,1.153-5.333-1.2-5.332a12.018,12.018,0,0,0-5.712,1.462,2.716,2.716,0,0,0-.333,4.538Z" transform="translate(-408.28 -415.319)" fill="#2f3939"/>
        <path id="Trazado_125" data-name="Trazado 125" d="M423.613,415.317h0l.05,10.666,6.161-4.6a2.723,2.723,0,0,0-.326-4.569A12.024,12.024,0,0,0,423.613,415.317Z" transform="translate(-416.498 -415.317)" fill="#2f3939"/>
      </g>
    </g>
    <ellipse id="Elipse_11" data-name="Elipse 11" cx="5" cy="2.5" rx="5" ry="2.5" transform="translate(578 1285)" fill="#f06d6d"/>
  </g>
</svg>
