<svg id="Grupo_48" data-name="Grupo 48" xmlns="http://www.w3.org/2000/svg" width="106.268" height="144.913" viewBox="0 0 106.268 144.913">
  <rect id="Rectángulo_317" data-name="Rectángulo 317" width="72.456" height="109.659" transform="translate(7.246 22.826)" fill="#f7d134"/>
  <path id="Trazado_143" data-name="Trazado 143" d="M657.6,242.926H585.148a7.246,7.246,0,1,1,0-14.491H657.6a7.246,7.246,0,0,1,0,14.491Z" transform="translate(-577.902 -98.013)" fill="#e5e8e8"/>
  <path id="Trazado_144" data-name="Trazado 144" d="M668.251,184.777h12.076a4.829,4.829,0,0,0,4.831-4.827V138.889a4.829,4.829,0,0,0-4.827-4.831H668.251V124.4h12.076a14.491,14.491,0,0,1,14.491,14.489v41.06a14.49,14.49,0,0,1-14.487,14.494h-12.08Z" transform="translate(-588.549 -85.753)" fill="#e5e8e8"/>
  <path id="Trazado_145" data-name="Trazado 145" d="M580.5,99.956a9.65,9.65,0,0,0,9.678,9.622,9.508,9.508,0,0,0,2.628-.408,9.653,9.653,0,0,0,5.265,6.666,9.4,9.4,0,0,0,1.529,9.439,9.662,9.662,0,1,0,14.972,0,9.57,9.57,0,0,0,1.843-3.657c.111,0,.217.034.331.034a9.587,9.587,0,0,0,7.245-3.333,9.564,9.564,0,0,0,15.636-1.626,9.462,9.462,0,0,0,1.27.128,9.659,9.659,0,0,0,9.447-7.657,9.63,9.63,0,1,0,3.768-18.8,9.615,9.615,0,0,0-8.38-4.94,9.76,9.76,0,0,0-1.27.128,9.534,9.534,0,0,0-14.436-2.78,9.425,9.425,0,0,0-10.868-.835,9.483,9.483,0,0,0-12.317,2.285l-.081-.045a9.5,9.5,0,0,0-12.887,3.779,9.583,9.583,0,0,0-5.4,2.47A9.65,9.65,0,0,0,580.5,99.956Z" transform="translate(-578.208 -80.59)" fill="#eaefef"/>
  <g id="Grupo_62" data-name="Grupo 62" transform="translate(16.907 67.563)">
    <path id="Trazado_146" data-name="Trazado 146" d="M601.9,210.377a4.829,4.829,0,0,1-4.831-4.827V162.074a4.831,4.831,0,0,1,9.66-.131c0,.044,0,.087,0,.131v43.472a4.829,4.829,0,0,1-4.827,4.831Z" transform="translate(-597.068 -157.178)" fill="#f8e183"/>
    <path id="Trazado_147" data-name="Trazado 147" d="M626.539,210.377a4.829,4.829,0,0,1-4.831-4.827V162.074a4.831,4.831,0,0,1,9.661-.131c0,.044,0,.087,0,.131v43.472a4.829,4.829,0,0,1-4.827,4.831Z" transform="translate(-599.971 -157.178)" fill="#f8e183"/>
    <path id="Trazado_148" data-name="Trazado 148" d="M651.18,210.395a4.829,4.829,0,0,1-4.831-4.827V162.091a4.831,4.831,0,0,1,9.66,0v43.472a4.829,4.829,0,0,1-4.827,4.831Z" transform="translate(-602.875 -157.196)" fill="#f8e183"/>
  </g>
</svg>
