<svg id="Grupo_64" data-name="Grupo 64" xmlns="http://www.w3.org/2000/svg" width="145.165" height="144.631" viewBox="0 0 145.165 144.631">
  <g id="Grupo_56" data-name="Grupo 56" transform="translate(54.234 0)">
    <path id="Trazado_106" data-name="Trazado 106" d="M812.494,173.08A4.853,4.853,0,0,1,807.71,169c-.238-1.473-.524-2.962-.853-4.426-2.763-12.341-7.721-19.844-11.7-25.873-3.956-5.987-7.373-11.157-5.757-17.741,1.859-7.57,8.963-10.7,14.673-13.221,4.956-2.185,8.241-3.8,8.736-6.293.632-3.172-2.676-8.11-9.075-13.545a4.851,4.851,0,1,1,6.282-7.4c9.7,8.241,13.728,15.71,12.311,22.834-1.516,7.626-8.627,10.76-14.339,13.28-5.1,2.249-8.493,3.926-9.162,6.654-.579,2.353,1.12,5.074,4.427,10.079,4.189,6.338,9.924,15.02,13.078,29.1.37,1.653.7,3.338.963,5.005a4.851,4.851,0,0,1-4.018,5.561A4.955,4.955,0,0,1,812.494,173.08Z" transform="translate(-788.986 -79.351)" fill="#e5e8e8"/>
  </g>
  <path id="Trazado_107" data-name="Trazado 107" d="M839.358,167.773H761.182a33.315,33.315,0,1,0,27.17,52.075,4.4,4.4,0,0,1,3.634-1.932h16.2a4.429,4.429,0,0,1,3.649,1.952,33.315,33.315,0,1,0,27.518-52.1Z" transform="translate(-727.507 -89.771)" fill="#cacece"/>
  <path id="Trazado_108" data-name="Trazado 108" d="M775.1,196.835h-5.687a1.17,1.17,0,0,1-1.171-1.17v-5.687a5.647,5.647,0,0,0-5.356-5.689,5.559,5.559,0,0,0-5.761,5.555v5.821a1.17,1.17,0,0,1-1.171,1.17h-5.687a5.645,5.645,0,0,0-5.688,5.356,5.559,5.559,0,0,0,5.555,5.761h5.821a1.17,1.17,0,0,1,1.171,1.171v5.687a5.646,5.646,0,0,0,5.355,5.688,5.559,5.559,0,0,0,5.762-5.555v-5.82a1.17,1.17,0,0,1,1.17-1.171h5.82a5.559,5.559,0,0,0,5.556-5.761A5.647,5.647,0,0,0,775.1,196.835Z" transform="translate(-729.518 -91.717)" fill="#5e7172"/>
  <ellipse id="Elipse_5" data-name="Elipse 5" cx="20.572" cy="20.572" rx="20.572" ry="20.572" transform="translate(91.883 89.741)" fill="#5e7172"/>
  <g id="Grupo_63" data-name="Grupo 63" transform="translate(95.097 92.609)">
    <g id="Grupo_59" data-name="Grupo 59" transform="translate(11.933)">
      <g id="Grupo_57" data-name="Grupo 57">
        <ellipse id="Elipse_6" data-name="Elipse 6" cx="5.425" cy="5.425" rx="5.425" ry="5.425" fill="#59bc47"/>
      </g>
      <g id="Grupo_58" data-name="Grupo 58" transform="translate(0 24.558)">
        <ellipse id="Elipse_7" data-name="Elipse 7" cx="5.425" cy="5.425" rx="5.425" ry="5.425" fill="#f7d134"/>
      </g>
    </g>
    <g id="Grupo_62" data-name="Grupo 62" transform="translate(0 12.279)">
      <g id="Grupo_60" data-name="Grupo 60" transform="translate(23.866)">
        <ellipse id="Elipse_8" data-name="Elipse 8" cx="5.425" cy="5.425" rx="5.425" ry="5.425" fill="#16a4a8"/>
      </g>
      <g id="Grupo_61" data-name="Grupo 61">
        <ellipse id="Elipse_9" data-name="Elipse 9" cx="5.425" cy="5.425" rx="5.425" ry="5.425" fill="#f06d6d"/>
      </g>
    </g>
  </g>
  <path id="Trazado_109" data-name="Trazado 109" d="M789.361,167.773v13.333a5.98,5.98,0,0,0,5.981,5.98h24.073a5.98,5.98,0,0,0,5.981-5.98V167.773Z" transform="translate(-734.796 -89.771)" fill="#5e7172"/>
</svg>
