<svg id="Grupo_51" data-name="Grupo 51" xmlns="http://www.w3.org/2000/svg" width="141.809" height="145.315" viewBox="0 0 141.809 145.315">
  <path id="Trazado_122" data-name="Trazado 122" d="M307.487,82.7c-6.3-1.941-23.249-5.558-37.36,5.959-8.751,7.145-12.013,16.524-13.076,24.182l23-10.762-.363-2.646a1.465,1.465,0,0,1,1.77-1.628L289.5,99.6a1.465,1.465,0,0,0,1.245-.3l17.233-14.064a1.465,1.465,0,0,0-.491-2.534Z" transform="translate(-185.682 -80.595)" fill="#59bc47"/>
  <path id="Trazado_96" data-name="Trazado 96" d="M264.18,140.79l-4.343-15.916-.107-1.306-3.945,0h-4l-.057,1.312-1.643,15.413a77.525,77.525,0,0,1,7.345,47.775h0c-.287,1.84-.617,3.6-.985,5.26l7.391,3.617,7.734-1.887c.242-1.733.424-3.448.565-5.147h0C273.869,168.985,268.3,150.9,264.18,140.79Z" transform="translate(-184.862 -85.659)" fill="#74613c"/>
  <path id="Trazado_125" data-name="Trazado 125" d="M315.314,235.016c-10.152-10.363-35.527-32.385-67.851-32.385s-57.7,22.022-67.852,32.385l67.881,2.637Z" transform="translate(-176.556 -94.977)" fill="#e0c6a0"/>
  <path id="Trazado_126" data-name="Trazado 126" d="M198.73,82.7c6.3-1.941,23.249-5.558,37.36,5.959,8.751,7.145,12.012,16.524,13.076,24.182l-23-10.762.363-2.646a1.466,1.466,0,0,0-1.77-1.628l-8.041,1.79a1.463,1.463,0,0,1-1.245-.3L198.239,85.235a1.464,1.464,0,0,1,.491-2.534Z" transform="translate(-178.688 -80.595)" fill="#59bc47"/>
  <path id="Trazado_127" data-name="Trazado 127" d="M252.873,115.713c-2-1.793-10.85-9.139-23-10.762l-.71,5.183,24.156,11.233A48.32,48.32,0,0,0,252.873,115.713Z" transform="translate(-182.396 -83.465)" fill="#4a9b3b"/>
  <path id="Trazado_128" data-name="Trazado 128" d="M245.681,137.37c3.837,0,8.2-3.413,8.2-7.825a8.616,8.616,0,0,0-16.4,0c0,5.293,4.365,7.825,8.2,7.825Z" transform="translate(-183.376 -85.659)" fill="#bf9217"/>
  <path id="Trazado_129" data-name="Trazado 129" d="M245.629,136.32a8.615,8.615,0,0,1-8.2-5.977,8.614,8.614,0,1,0,16.4,0,8.617,8.617,0,0,1-8.2,5.977Z" transform="translate(-183.321 -86.458)" fill="#bf9217"/>
  <path id="Trazado_130" data-name="Trazado 130" d="M265.215,138.229c3.837,0,8.2-4.135,8.2-8.684a8.615,8.615,0,0,0-16.4,0,8.353,8.353,0,0,0,8.016,8.679l.188.005Z" transform="translate(-185.677 -85.659)" fill="#bf9217"/>
  <path id="Trazado_131" data-name="Trazado 131" d="M256.99,115.713c2-1.793,10.85-9.139,23-10.762l.711,5.183-24.156,11.235A48.164,48.164,0,0,1,256.99,115.713Z" transform="translate(-185.623 -83.465)" fill="#4a9b3b"/>
  <path id="Trazado_135" data-name="Trazado 135" d="M179.2,239.342c-1.059,1.082-1.953,2.036-2.671,2.823a1.464,1.464,0,0,0,1.085,2.453H316.491a1.464,1.464,0,0,0,1.086-2.449c-.718-.79-1.612-1.744-2.671-2.823Z" transform="translate(-176.148 -99.303)" fill="#e0c6a0"/>
  <g id="Grupo_49" data-name="Grupo 49" transform="translate(29.846 106.171)">
    <path id="Trazado_134" data-name="Trazado 134" d="M217.231,215.345c3.712.973,9.149-2.542,10.121-6.252a8.615,8.615,0,0,0-15.866-4.161C210.346,209.269,213.52,214.371,217.231,215.345Z" transform="translate(-210.131 -200.949)" fill="#bf9217"/>
    <path id="Trazado_136" data-name="Trazado 136" d="M217.75,213.327a8.618,8.618,0,0,1-6.419-7.863,8.614,8.614,0,1,0,15.867,4.161,8.616,8.616,0,0,1-9.452,3.7Z" transform="translate(-209.981 -201.481)" fill="#bf9217"/>
  </g>
  <g id="Grupo_50" data-name="Grupo 50" transform="translate(47.575 104.739)">
    <path id="Trazado_134-2" data-name="Trazado 134" d="M235.579,210.259c2.818.744,6.951-1.919,7.7-4.734a6.545,6.545,0,0,0-12.047-3.183C230.357,205.634,232.76,209.514,235.579,210.259Z" transform="translate(-230.193 -199.326)" fill="#bf9217"/>
    <path id="Trazado_136-2" data-name="Trazado 136" d="M235.975,208.725a6.545,6.545,0,0,1-4.864-5.981,6.543,6.543,0,1,0,12.046,3.183,6.545,6.545,0,0,1-7.184,2.8Z" transform="translate(-230.079 -199.729)" fill="#bf9217"/>
  </g>
  <path id="Trazado_137" data-name="Trazado 137" d="M265.16,136.32a8.615,8.615,0,0,1-8.2-5.977,8.614,8.614,0,1,0,16.4,0A8.619,8.619,0,0,1,265.16,136.32Z" transform="translate(-185.622 -86.458)" fill="#bf9217"/>
  <path id="Trazado_97" data-name="Trazado 97" d="M243.2,118.293l0,0c-6.583-4.484-19.36-10.83-34.243-6.015s-21.523,17.445-24.227,24.933h0c-.441,1.23-.783,2.322-1.035,3.217a1.463,1.463,0,0,0,1.862,1.789l21.172-6.849a1.466,1.466,0,0,0,.923-.882l1.968-5.323-.03.01.025-.014.888-2.4a1.465,1.465,0,0,1,1.883-.865,1.482,1.482,0,0,1,.445.262l1.663,1.427h0l3.838,3.294a1.462,1.462,0,0,0,1.405.282l28.218-9.13A38.668,38.668,0,0,0,243.2,118.293Z" transform="translate(-177.031 -84.126)" fill="#59bc47"/>
  <path id="Trazado_98" data-name="Trazado 98" d="M320.807,140.43c-.251-.9-.594-1.987-1.035-3.217l-.007,0h0c-2.706-7.489-9.34-20.12-24.228-24.937s-27.665,1.533-34.247,6.017h0a38.593,38.593,0,0,0-4.749,3.736l28.218,9.13a1.463,1.463,0,0,0,1.405-.282l3.838-3.295h0l1.663-1.427a1.466,1.466,0,0,1,2.328.6h0l.888,2.4.035.019-.039-.013,1.968,5.323a1.462,1.462,0,0,0,.923.882l21.172,6.849a1.464,1.464,0,0,0,1.862-1.789Z" transform="translate(-185.623 -84.125)" fill="#59bc47"/>
  <ellipse id="Elipse_1" data-name="Elipse 1" cx="1.286" cy="1.286" rx="1.286" ry="1.286" transform="translate(95.398 120.669)" fill="#b7a48a"/>
  <ellipse id="Elipse_2" data-name="Elipse 2" cx="2.693" cy="2.693" rx="2.693" ry="2.693" transform="translate(96.357 128.591)" fill="#b7a48a"/>
  <ellipse id="Elipse_3" data-name="Elipse 3" cx="1.9" cy="1.9" rx="1.9" ry="1.9" transform="translate(101.241 123.9)" fill="#b7a48a"/>
  <ellipse id="Elipse_4" data-name="Elipse 4" cx="0.891" cy="0.891" rx="0.891" ry="0.891" transform="translate(101.13 118.486)" fill="#b7a48a"/>
</svg>
