<svg xmlns="http://www.w3.org/2000/svg" width="64.989" height="33.356" viewBox="0 0 64.989 33.356">
  <g id="logotipo_vibra" transform="translate(0.528 0.502)">
    <path id="Trazado_25" data-name="Trazado 25" d="M667.414,79.655H654.652a15.491,15.491,0,0,0-1.763-5.867l2.421-1.023a.3.3,0,0,0,.179-.271.258.258,0,0,0-.023-.115.3.3,0,0,0-.163-.159.288.288,0,0,0-.223,0L652.6,73.271a16.7,16.7,0,0,0-3.627-4.323l8.323-8.323a.295.295,0,1,0-.417-.417l-8.362,8.361a17.559,17.559,0,0,0-4.915-2.74l.908-2.239a.279.279,0,0,0,.024-.111.294.294,0,0,0-.184-.276.3.3,0,0,0-.384.162l-.92,2.269a17.749,17.749,0,0,0-5.2-.868l.006-12.1a.294.294,0,0,0-.295-.295.3.3,0,0,0-.295.295l-.006,12.1a17.717,17.717,0,0,0-5.408.932l-4.1-9.705a.3.3,0,0,0-.387-.158A.3.3,0,0,0,627.2,56a.288.288,0,0,0,0,.221l4.088,9.675a17.545,17.545,0,0,0-4.714,2.665L618.217,60.2a.295.295,0,0,0-.417.417l8.324,8.324a16.681,16.681,0,0,0-3.75,4.533l-6.5-2.639a.295.295,0,0,0-.222.546l6.442,2.614a15.475,15.475,0,0,0-1.659,5.662H607.669a.295.295,0,1,0,0,.589h13.037a.3.3,0,0,0,.294-.273A15.437,15.437,0,0,1,626.713,69.2a.306.306,0,0,0,.049-.039l0,0a17.175,17.175,0,0,1,21.568.009l0,0a.3.3,0,0,0,.049.039,15.439,15.439,0,0,1,5.7,10.766.3.3,0,0,0,.294.273h13.033a.295.295,0,1,0,0-.589Z" transform="translate(-605.494 -47.891)" fill="#fff" stroke="#fff" stroke-width="1"/>
    <path id="Trazado_26" data-name="Trazado 26" d="M804.593,40.136a.287.287,0,0,0,.11.023.292.292,0,0,0,.274-.185l4.066-10.014a.3.3,0,0,0-.005-.229.285.285,0,0,0-.159-.153.289.289,0,0,0-.225,0,.3.3,0,0,0-.16.161l-4.063,10.013a.3.3,0,0,0,0,.229A.3.3,0,0,0,804.593,40.136Z" transform="translate(-763.817 -29.556)" fill="#fff" stroke="#fff" stroke-width="1"/>
    <path id="Trazado_27" data-name="Trazado 27" d="M604.836,128.93a.295.295,0,0,0,.111-.568l-6.736-2.734a.295.295,0,1,0-.222.546l6.736,2.734A.3.3,0,0,0,604.836,128.93Z" transform="translate(-597.805 -106.735)" fill="#fff" stroke="#fff" stroke-width="1"/>
    <path id="Trazado_28" data-name="Trazado 28" d="M881.529,123.484a.3.3,0,0,0-.386-.156l-9.593,4.054a.3.3,0,0,0-.159.164.285.285,0,0,0,0,.219.291.291,0,0,0,.272.184.311.311,0,0,0,.115-.024l9.593-4.053A.3.3,0,0,0,881.529,123.484Z" transform="translate(-817.621 -104.886)" fill="#fff" stroke="#fff" stroke-width="1"/>
    <path id="Trazado_29" data-name="Trazado 29" d="M692.626,33.406a.294.294,0,0,0,.272.181.269.269,0,0,0,.113-.023.3.3,0,0,0,.181-.272.313.313,0,0,0-.023-.115l-1.051-2.485a.295.295,0,1,0-.543.23Z" transform="translate(-673.132 -30.325)" fill="#fff" stroke="#fff" stroke-width="1"/>
  </g>
</svg>
